<?xml version="1.0" encoding="UTF-8"?>
<svg id="Layer_2" data-name="Layer 2" xmlns="http://www.w3.org/2000/svg" viewBox="0 0 2000 2000">
  <defs>
    <style>
      .cls-1 {
        fill: #3b54a4;
      }

      .cls-2 {
        fill: #5674b8;
      }
    </style>
  </defs>
  <g id="Layer_1-2" data-name="Layer 1">
    <g>
      <g>
        <path d="M0,0V2000H2000V0H0ZM1166.62,925.19c0-4.55,3.59-8.24,8.01-8.24h16.02c4.42,0,8.01,3.69,8.01,8.24v82.42c0,4.55,3.59,8.24,8.01,8.24h16.02c4.42,0,8.01-3.69,8.01-8.24v-82.42c0-4.55,3.59-8.24,8.01-8.24h16.02c4.42,0,8.01,3.69,8.01,8.24v98.9c0,4.55-3.59,8.24-8.01,8.24h0c-4.42,0-8.01,3.69-8.01,8.24s-3.59,8.24-8.01,8.24h-48.07c-4.42,0-8.01-3.69-8.01-8.24s-3.59-8.24-8.01-8.24h0c-4.42,0-8.01-3.69-8.01-8.24v-98.9Zm-688.94,16.48c0,4.55-3.59,8.24-8.01,8.24h-16.02c-4.42,0-8.01,3.69-8.01,8.24v49.45c0,4.55,3.59,8.24,8.01,8.24h16.02c4.42,0,8.01,3.69,8.01,8.24v16.48c0,4.55-3.59,8.24-8.01,8.24h-80.11c-4.42,0-8.01-3.69-8.01-8.24v-16.48c0-4.55,3.59-8.24,8.01-8.24h16.02c4.42,0,8.01-3.69,8.01-8.24v-49.45c0-4.55-3.59-8.24-8.01-8.24h-16.02c-4.42,0-8.01-3.69-8.01-8.24v-16.48c0-4.55,3.59-8.24,8.01-8.24h80.11c4.42,0,8.01,3.69,8.01,8.24v16.48Zm112.15,98.9c0,4.55-3.59,8.24-8.01,8.24h-16.02c-4.42,0-8.01-3.69-8.01-8.24v-32.97c0-4.55-3.59-8.24-8.01-8.24h0c-4.42,0-8.01-3.69-8.01-8.24h0c0-4.55-3.59-8.24-8.01-8.24s-8.01,3.69-8.01,8.24v49.45c0,4.55-3.59,8.24-8.01,8.24h-16.02c-4.42,0-8.01-3.69-8.01-8.24v-115.38c0-4.55,3.59-8.24,8.01-8.24h16.02c4.42,0,8.01,3.69,8.01,8.24s3.59,8.24,8.01,8.24,8.01,3.69,8.01,8.24h0c0,4.55,3.59,8.24,8.01,8.24h0c4.42,0,8.01-3.69,8.01-8.24v-16.48c0-4.55,3.59-8.24,8.01-8.24h16.02c4.42,0,8.01,3.69,8.01,8.24v115.38Zm112.15-98.9c0,4.55-3.59,8.24-8.01,8.24h-48.07c-4.42,0-8.01,3.69-8.01,8.24s3.59,8.24,8.01,8.24h16.02c4.42,0,8.01,3.69,8.01,8.24v16.49c0,4.55-3.59,8.24-8.01,8.24h-16.02c-4.42,0-8.01,3.69-8.01,8.24v32.97c0,4.55-3.59,8.24-8.01,8.24h-16.02c-4.42,0-8.01-3.69-8.01-8.24v-98.9c0-4.55,3.59-8.24,8.01-8.24h0c4.42,0,8.01-3.69,8.01-8.24s3.59-8.24,8.01-8.24h64.09c4.42,0,8.01,3.69,8.01,8.24v16.48Zm112.15,0c0,4.55-3.59,8.24-8.01,8.24h-16.02c-4.42,0-8.01,3.69-8.01,8.24v49.45c0,4.55,3.59,8.24,8.01,8.24h16.02c4.42,0,8.01,3.69,8.01,8.24v16.48c0,4.55-3.59,8.24-8.01,8.24h-80.11c-4.42,0-8.01-3.69-8.01-8.24v-16.48c0-4.55,3.59-8.24,8.01-8.24h16.02c4.42,0,8.01-3.69,8.01-8.24v-49.45c0-4.55-3.59-8.24-8.01-8.24h-16.02c-4.42,0-8.01-3.69-8.01-8.24v-16.48c0-4.55,3.59-8.24,8.01-8.24h80.11c4.42,0,8.01,3.69,8.01,8.24v16.48Zm112.15,98.9c0,4.55-3.59,8.24-8.01,8.24h-16.02c-4.42,0-8.01-3.69-8.01-8.24v-32.97c0-4.55-3.59-8.24-8.01-8.24h0c-4.42,0-8.01-3.69-8.01-8.24h0c0-4.55-3.59-8.24-8.01-8.24s-8.01,3.69-8.01,8.24v49.45c0,4.55-3.59,8.24-8.01,8.24h-16.02c-4.42,0-8.01-3.69-8.01-8.24v-115.38c0-4.55,3.59-8.24,8.01-8.24h16.02c4.42,0,8.01,3.69,8.01,8.24s3.59,8.24,8.01,8.24,8.01,3.69,8.01,8.24h0c0,4.55,3.59,8.24,8.01,8.24h0c4.42,0,8.01-3.69,8.01-8.24v-16.48c0-4.55,3.59-8.24,8.01-8.24h16.02c4.42,0,8.01,3.69,8.01,8.24v115.38Zm112.15-98.9c0,4.55-3.59,8.24-8.01,8.24h-16.02c-4.42,0-8.01,3.69-8.01,8.24v49.45c0,4.55,3.59,8.24,8.01,8.24h16.02c4.42,0,8.01,3.69,8.01,8.24v16.48c0,4.55-3.59,8.24-8.01,8.24h-80.11c-4.42,0-8.01-3.69-8.01-8.24v-16.48c0-4.55,3.59-8.24,8.01-8.24h16.02c4.42,0,8.01-3.69,8.01-8.24v-49.45c0-4.55-3.59-8.24-8.01-8.24h-16.02c-4.42,0-8.01-3.69-8.01-8.24v-16.48c0-4.55,3.59-8.24,8.01-8.24h80.11c4.42,0,8.01,3.69,8.01,8.24v16.48Zm112.15,0c0,4.55-3.59,8.24-8.01,8.24h-16.02c-4.42,0-8.01,3.69-8.01,8.24v82.42c0,4.55-3.59,8.24-8.01,8.24h-16.02c-4.42,0-8.01-3.69-8.01-8.24v-82.42c0-4.55-3.59-8.24-8.01-8.24h-16.02c-4.42,0-8.01-3.69-8.01-8.24v-16.48c0-4.55,3.59-8.24,8.01-8.24h80.11c4.42,0,8.01,3.69,8.01,8.24v16.48Zm62.31,156.95c0,2.19-1.73,3.97-3.86,3.97s-3.86,1.78-3.86,3.97h0c0,2.19-1.73,3.97-3.86,3.97h-15.43c-2.13,0-3.86,1.78-3.86,3.97s1.73,3.97,3.86,3.97h23.14c2.13,0,3.86,1.78,3.86,3.97v7.94c0,2.19-1.73,3.97-3.86,3.97h-38.57c-2.13,0-3.86-1.78-3.86-3.97v-23.81c0-2.19,1.73-3.97,3.86-3.97s3.86-1.78,3.86-3.97,1.73-3.97,3.86-3.97h15.43c2.13,0,3.86-1.78,3.86-3.97s-1.73-3.97-3.86-3.97h-23.14c-2.13,0-3.86-1.78-3.86-3.97v-7.94c0-2.19,1.73-3.97,3.86-3.97h30.86c2.13,0,3.86,1.78,3.86,3.97s1.73,3.97,3.86,3.97,3.86,1.78,3.86,3.97v15.87Zm54,23.81c0,2.19-1.73,3.97-3.86,3.97s-3.86,1.78-3.86,3.97-1.73,3.97-3.86,3.97h-23.14c-2.13,0-3.86-1.78-3.86-3.97s-1.73-3.97-3.86-3.97-3.86-1.78-3.86-3.97v-39.68c0-2.19,1.73-3.97,3.86-3.97s3.86-1.78,3.86-3.97,1.73-3.97,3.86-3.97h23.14c2.13,0,3.86,1.78,3.86,3.97s1.73,3.97,3.86,3.97,3.86,1.78,3.86,3.97v39.68Zm54-23.81c0,2.19-1.73,3.97-3.86,3.97s-3.86,1.78-3.86,3.97h0c0,2.19-1.73,3.97-3.86,3.97h-15.43c-2.13,0-3.86,1.78-3.86,3.97s1.73,3.97,3.86,3.97h23.14c2.13,0,3.86,1.78,3.86,3.97v7.94c0,2.19-1.73,3.97-3.86,3.97h-38.57c-2.13,0-3.86-1.78-3.86-3.97v-23.81c0-2.19,1.73-3.97,3.86-3.97s3.86-1.78,3.86-3.97,1.73-3.97,3.86-3.97h15.43c2.13,0,3.86-1.78,3.86-3.97s-1.73-3.97-3.86-3.97h-23.14c-2.13,0-3.86-1.78-3.86-3.97v-7.94c0-2.19,1.73-3.97,3.86-3.97h30.86c2.13,0,3.86,1.78,3.86,3.97s1.73,3.97,3.86,3.97,3.86,1.78,3.86,3.97v15.87Zm50.01,24.24c0,2.19-1.73,3.97-3.86,3.97s-3.86,1.78-3.86,3.97-1.73,3.97-3.86,3.97h-30.86c-2.13,0-3.86-1.78-3.86-3.97v-7.94c0-2.19,1.73-3.97,3.86-3.97h23.14c2.13,0,3.86-1.78,3.86-3.97s-1.73-3.97-3.86-3.97h-7.71c-2.13,0-3.86-1.78-3.86-3.97v-7.94c0-2.19,1.73-3.97,3.86-3.97h7.71c2.13,0,3.86-1.78,3.86-3.97s-1.73-3.97-3.86-3.97h-23.14c-2.13,0-3.86-1.78-3.86-3.97v-7.94c0-2.19,1.73-3.97,3.86-3.97h30.86c2.13,0,3.86,1.78,3.86,3.97h0c0,2.19,1.73,3.97,3.86,3.97s3.86,1.78,3.86,3.97v39.68Zm3.99-181.19c0,4.55-3.59,8.24-8.01,8.24h-48.07c-4.42,0-8.01,3.69-8.01,8.24s3.59,8.24,8.01,8.24h32.04c4.42,0,8.01,3.69,8.01,8.24h0c0,4.55,3.59,8.24,8.01,8.24h0c4.42,0,8.01,3.69,8.01,8.24v32.97c0,4.55-3.59,8.24-8.01,8.24h0c-4.42,0-8.01,3.69-8.01,8.24s-3.59,8.24-8.01,8.24h-64.09c-4.42,0-8.01-3.69-8.01-8.24v-16.48c0-4.55,3.59-8.24,8.01-8.24h48.07c4.42,0,8.01-3.69,8.01-8.24s-3.59-8.24-8.01-8.24h-32.04c-4.42,0-8.01-3.69-8.01-8.24h0c0-4.55-3.59-8.24-8.01-8.24h0c-4.42,0-8.01-3.69-8.01-8.24v-32.97c0-4.55,3.59-8.24,8.01-8.24h0c4.42,0,8.01-3.69,8.01-8.24s3.59-8.24,8.01-8.24h64.09c4.42,0,8.01,3.69,8.01,8.24v16.48Z"/>
        <path d="M1247.62,1086.71h-7.71c-2.13,0-3.86,1.78-3.86,3.97v23.81c0,2.19,1.73,3.97,3.86,3.97h7.71c2.13,0,3.86-1.78,3.86-3.97v-23.81c0-2.19-1.73-3.97-3.86-3.97Z"/>
      </g>
      <g>
        <path class="cls-1" d="M1666.14,1131.72c3.98-3.06,3.91-7.47,4.85-11.99,1.63-7.84,7.38-14.64,14.71-17.38,9.64-3.61,20.94-.42,30.23-4.9,6.95-3.35,11.7-11.03,11.73-18.92,.03-10.25-7.04-21.1-2.13-30.02,1.31-2.38,3.48-4.75,2.83-7.41-.78-3.22-5.37-4.6-5.49-7.92-.12-3.39,4.35-4.79,5.9-7.78,2.95-5.7-6.08-12.15-3.81-18.17,1.76-4.67,8.89-4.98,11.7-8.62,.43-.56,.76-1.19,.95-1.93,.52-1.99-.22-4.1-1.15-5.93-5.71-11.2-18.23-17-25.23-27.4-5.96-8.87-7.28-20.05-9.86-30.51-.1-.39-.2-.79-.3-1.18-11.76-45.38-52.02-76.75-97.68-76.75h-52.32c-9.37,0-16.97,7.82-16.97,17.46h0c0,9.64,7.6,17.46,16.97,17.46h16.97c9.37,0,16.97,7.82,16.97,17.46h0c0,9.64-7.6,17.46-16.97,17.46h-67.9c-9.37,0-16.97,7.82-16.97,17.46h0c0,9.64,7.6,17.46,16.97,17.46h16.97c9.37,0,16.97,7.82,16.97,17.46h0c0,9.64,7.6,17.46,16.97,17.46h16.97c9.37,0,16.97,7.82,16.97,17.46h0c0,9.64-7.6,17.46-16.97,17.46h-16.97c-9.37,0-16.97,7.82-16.97,17.46h0c0,9.64-7.6,17.46-16.97,17.46h-16.97c-9.37,0-16.97,7.82-16.97,17.46h0c0,9.64,7.6,17.46,16.97,17.46h16.97c9.37,0,16.97,7.82,16.97,17.46h0c0,9.64,7.6,17.46,16.97,17.46h105.46c3.66-.03,7.07-.64,9.62-2.61Z"/>
        <path class="cls-2" d="M1666.14,1131.72c3.98-3.06,3.91-7.47,4.85-11.99,1.63-7.84,7.38-14.64,14.71-17.38,9.64-3.61,20.94-.42,30.23-4.9,6.95-3.35,11.7-11.03,11.73-18.92,.03-10.25-7.04-21.1-2.13-30.02,1.31-2.38,3.48-4.75,2.83-7.41-.78-3.22-5.37-4.6-5.49-7.92-.12-3.39,4.35-4.79,5.9-7.78,2.95-5.7-6.08-12.15-3.81-18.17,1.76-4.67,8.89-4.98,11.7-8.62,.43-.56,.76-1.19,.95-1.93,.52-1.99-.22-4.1-1.15-5.93-5.71-11.2-18.23-17-25.23-27.4-5.96-8.87-7.28-20.05-9.86-30.51-.1-.39-.2-.79-.3-1.18-3-11.59-7.87-22.27-14.21-31.75v7.39c0,9.64-7.6,17.46-16.97,17.46h-16.97c-9.37,0-16.97,7.82-16.97,17.46h0c0,9.64-7.6,17.46-16.97,17.46h-16.97c-9.37,0-16.97,7.82-16.97,17.46h0c0,9.64,7.6,17.46,16.97,17.46h67.9c9.37,0,16.97,7.82,16.97,17.46h0c0,9.64-7.6,17.46-16.97,17.46h-16.97c-9.37,0-16.97,7.82-16.97,17.46h0c0,9.64-7.6,17.46-16.97,17.46h-67.9c-9.37,0-16.97,7.82-16.97,17.46h0c0,9.64,7.6,17.46,16.97,17.46h16.97c9.37,0,16.97,7.82,16.97,17.46h0c0,9.64,7.6,17.46,16.97,17.46h54.53c3.66-.03,7.07-.64,9.62-2.61Z"/>
        <path class="cls-1" d="M1466.2,1134.33h-16.97c-9.37,0-16.97-7.82-16.97-17.46h0c0-9.64,7.6-17.46,16.97-17.46h16.97c9.37,0,16.97,7.82,16.97,17.46h0c0,9.64-7.6,17.46-16.97,17.46Z"/>
        <path class="cls-1" d="M1483.17,994.63h-33.95c-9.37,0-16.97,7.82-16.97,17.46h0c0,9.64,7.6,17.46,16.97,17.46h67.9c9.37,0,16.97-7.82,16.97-17.46h0c0-9.64-7.6-17.46-16.97-17.46h-33.95Z"/>
        <path class="cls-1" d="M1449.22,854.93h16.97c9.37,0,16.97,7.82,16.97,17.46h0c0,9.64-7.6,17.46-16.97,17.46h-16.97c-9.37,0-16.97-7.82-16.97-17.46h0c0-9.64,7.6-17.46,16.97-17.46Z"/>
      </g>
    </g>
  </g>
</svg>