<?xml version="1.0" encoding="UTF-8"?>
<svg id="Layer_2" data-name="Layer 2" xmlns="http://www.w3.org/2000/svg" viewBox="0 0 2001 2001">
  <defs>
    <style>
      .cls-1 {
        stroke: #221f1f;
        stroke-miterlimit: 10;
      }
    </style>
  </defs>
  <g id="Layer_1-2" data-name="Layer 1">
    <g>
      <path class="cls-1" d="M1413.77,1109.6h-8.63c-2.38,0-4.32,1.72-4.32,3.85v23.12c0,2.13,1.93,3.85,4.32,3.85h8.63c2.38,0,4.32-1.72,4.32-3.85v-23.12c0-2.13-1.93-3.85-4.32-3.85Z"/>
      <path class="cls-1" d="M.5,.5V2000.5H2000.5V.5H.5ZM1323.15,952.77c0-4.42,4.01-8,8.96-8h17.93c4.95,0,8.96,3.58,8.96,8v80.02c0,4.42,4.01,8,8.96,8h17.92c4.95,0,8.96-3.58,8.96-8v-80.02c0-4.42,4.01-8,8.96-8h17.93c4.95,0,8.96,3.58,8.96,8v96.02c0,4.42-4.01,8-8.96,8h0c-4.95,0-8.96,3.58-8.96,8s-4.01,8-8.96,8h-53.78c-4.95,0-8.96-3.58-8.96-8s-4.01-8-8.96-8h0c-4.95,0-8.96-3.58-8.96-8v-96.02Zm-770.77,16.01c0,4.42-4.01,8-8.96,8h-17.93c-4.95,0-8.96,3.58-8.96,8v48.01c0,4.42,4.01,8,8.96,8h17.93c4.95,0,8.96,3.58,8.96,8v16.01c0,4.42-4.01,8-8.96,8h-89.63c-4.95,0-8.96-3.58-8.96-8v-16.01c0-4.42,4.01-8,8.96-8h17.93c4.95,0,8.96-3.58,8.96-8v-48.01c0-4.42-4.01-8-8.96-8h-17.93c-4.95,0-8.96-3.58-8.96-8v-16.01c0-4.42,4.01-8,8.96-8h89.63c4.95,0,8.96,3.58,8.96,8v16.01Zm125.47,96.02c0,4.42-4.01,8-8.96,8h-17.93c-4.95,0-8.96-3.58-8.96-8v-32.01c0-4.42-4.01-8-8.96-8h0c-4.95,0-8.96-3.58-8.96-8h0c0-4.42-4.01-8-8.96-8s-8.96,3.58-8.96,8v48.01c0,4.42-4.01,8-8.96,8h-17.93c-4.95,0-8.96-3.58-8.96-8v-112.02c0-4.42,4.01-8,8.96-8h17.93c4.95,0,8.96,3.58,8.96,8s4.01,8,8.96,8,8.96,3.58,8.96,8h0c0,4.42,4.01,8,8.96,8h0c4.95,0,8.96-3.58,8.96-8v-16.01c0-4.42,4.01-8,8.96-8h17.93c4.95,0,8.96,3.58,8.96,8v112.02Zm125.47-96.02c0,4.42-4.01,8-8.96,8h-53.78c-4.95,0-8.96,3.58-8.96,8s4.01,8,8.96,8h17.93c4.95,0,8.96,3.58,8.96,8v16.01c0,4.42-4.01,8-8.96,8h-17.93c-4.95,0-8.96,3.58-8.96,8v32.01c0,4.42-4.01,8-8.96,8h-17.93c-4.95,0-8.96-3.58-8.96-8v-96.02c0-4.42,4.01-8,8.96-8h0c4.95,0,8.96-3.58,8.96-8s4.01-8,8.96-8h71.7c4.95,0,8.96,3.58,8.96,8v16.01Zm125.47,0c0,4.42-4.01,8-8.96,8h-17.93c-4.95,0-8.96,3.58-8.96,8v48.01c0,4.42,4.01,8,8.96,8h17.93c4.95,0,8.96,3.58,8.96,8v16.01c0,4.42-4.01,8-8.96,8h-89.63c-4.95,0-8.96-3.58-8.96-8v-16.01c0-4.42,4.01-8,8.96-8h17.93c4.95,0,8.96-3.58,8.96-8v-48.01c0-4.42-4.01-8-8.96-8h-17.93c-4.95,0-8.96-3.58-8.96-8v-16.01c0-4.42,4.01-8,8.96-8h89.63c4.95,0,8.96,3.58,8.96,8v16.01Zm125.47,96.02c0,4.42-4.01,8-8.96,8h-17.93c-4.95,0-8.96-3.58-8.96-8v-32.01c0-4.42-4.01-8-8.96-8h0c-4.95,0-8.96-3.58-8.96-8h0c0-4.42-4.01-8-8.96-8h0c-4.95,0-8.96,3.58-8.96,8v48.01c0,4.42-4.01,8-8.96,8h-17.93c-4.95,0-8.96-3.58-8.96-8v-112.02c0-4.42,4.01-8,8.96-8h17.93c4.95,0,8.96,3.58,8.96,8s4.01,8,8.96,8h0c4.95,0,8.96,3.58,8.96,8h0c0,4.42,4.01,8,8.96,8h0c4.95,0,8.96-3.58,8.96-8v-16.01c0-4.42,4.01-8,8.96-8h17.93c4.95,0,8.96,3.58,8.96,8v112.02Zm125.47-96.02c0,4.42-4.01,8-8.96,8h-17.93c-4.95,0-8.96,3.58-8.96,8v48.01c0,4.42,4.01,8,8.96,8h17.93c4.95,0,8.96,3.58,8.96,8v16.01c0,4.42-4.01,8-8.96,8h-89.63c-4.95,0-8.96-3.58-8.96-8v-16.01c0-4.42,4.01-8,8.96-8h17.93c4.95,0,8.96-3.58,8.96-8v-48.01c0-4.42-4.01-8-8.96-8h-17.93c-4.95,0-8.96-3.58-8.96-8v-16.01c0-4.42,4.01-8,8.96-8h89.63c4.95,0,8.96,3.58,8.96,8v16.01Zm125.47,0c0,4.42-4.01,8-8.96,8h-17.93c-4.95,0-8.96,3.58-8.96,8v80.02c0,4.42-4.01,8-8.96,8h-17.92c-4.95,0-8.96-3.58-8.96-8v-80.02c0-4.42-4.01-8-8.96-8h-17.93c-4.95,0-8.96-3.58-8.96-8v-16.01c0-4.42,4.01-8,8.96-8h89.63c4.95,0,8.96,3.58,8.96,8v16.01Zm69.71,152.38c0,2.13-1.93,3.85-4.31,3.85h0c-2.38,0-4.32,1.72-4.32,3.85h0c0,2.13-1.93,3.85-4.32,3.85h-17.26c-2.38,0-4.32,1.72-4.32,3.85s1.93,3.85,4.32,3.85h25.89c2.38,0,4.31,1.72,4.31,3.85v7.71c0,2.13-1.93,3.85-4.31,3.85h-43.15c-2.38,0-4.31-1.72-4.31-3.85v-23.12c0-2.13,1.93-3.85,4.31-3.85s4.32-1.72,4.32-3.85,1.93-3.85,4.32-3.85h17.26c2.38,0,4.32-1.72,4.32-3.85s-1.93-3.85-4.32-3.85h-25.89c-2.38,0-4.31-1.72-4.31-3.85v-7.71c0-2.13,1.93-3.85,4.31-3.85h34.52c2.38,0,4.32,1.72,4.32,3.85s1.93,3.85,4.32,3.85h0c2.38,0,4.31,1.72,4.31,3.85v15.41Zm60.41,23.12c0,2.13-1.93,3.85-4.32,3.85s-4.31,1.72-4.31,3.85-1.93,3.85-4.32,3.85h-25.89c-2.38,0-4.31-1.72-4.31-3.85s-1.93-3.85-4.32-3.85h0c-2.38,0-4.31-1.72-4.31-3.85v-38.53c0-2.13,1.93-3.85,4.31-3.85h0c2.38,0,4.32-1.72,4.32-3.85s1.93-3.85,4.31-3.85h25.89c2.38,0,4.32,1.72,4.32,3.85s1.93,3.85,4.31,3.85,4.32,1.72,4.32,3.85v38.53Zm60.41-23.12c0,2.13-1.93,3.85-4.32,3.85s-4.31,1.72-4.31,3.85h0c0,2.13-1.93,3.85-4.32,3.85h-17.26c-2.38,0-4.32,1.72-4.32,3.85s1.93,3.85,4.32,3.85h25.89c2.38,0,4.32,1.72,4.32,3.85v7.71c0,2.13-1.93,3.85-4.32,3.85h-43.15c-2.38,0-4.32-1.72-4.32-3.85v-23.12c0-2.13,1.93-3.85,4.32-3.85s4.32-1.72,4.32-3.85,1.93-3.85,4.31-3.85h17.26c2.38,0,4.31-1.72,4.31-3.85s-1.93-3.85-4.31-3.85h-25.89c-2.38,0-4.32-1.72-4.32-3.85v-7.71c0-2.13,1.93-3.85,4.32-3.85h34.52c2.38,0,4.32,1.72,4.32,3.85s1.93,3.85,4.31,3.85,4.32,1.72,4.32,3.85v15.41Zm58.1,23c0,2.11-1.92,3.83-4.29,3.83s-4.29,1.71-4.29,3.83-1.92,3.83-4.29,3.83h-34.31c-2.37,0-4.29-1.71-4.29-3.83v-7.66c0-2.11,1.92-3.83,4.29-3.83h25.73c2.37,0,4.29-1.71,4.29-3.83s-1.92-3.83-4.29-3.83h-8.58c-2.37,0-4.29-1.71-4.29-3.83v-7.66c0-2.11,1.92-3.83,4.29-3.83h8.58c2.37,0,4.29-1.71,4.29-3.83s-1.92-3.83-4.29-3.83h-25.73c-2.37,0-4.29-1.71-4.29-3.83v-7.66c0-2.11,1.92-3.83,4.29-3.83h34.31c2.37,0,4.29,1.71,4.29,3.83h0c0,2.12,1.92,3.83,4.29,3.83s4.29,1.71,4.29,3.83v38.29Zm2.31-175.38c0,4.42-4.01,8-8.96,8h-53.78c-4.95,0-8.96,3.58-8.96,8s4.01,8,8.96,8h35.85c4.95,0,8.96,3.58,8.96,8s4.01,8,8.96,8h0c4.95,0,8.96,3.58,8.96,8v32.01c0,4.42-4.01,8-8.96,8h0c-4.95,0-8.96,3.58-8.96,8s-4.01,8-8.96,8h-71.7c-4.95,0-8.96-3.58-8.96-8v-16.01c0-4.42,4.01-8,8.96-8h53.78c4.95,0,8.96-3.58,8.96-8h0c0-4.42-4.01-8-8.96-8h-35.85c-4.95,0-8.96-3.58-8.96-8h0c0-4.42-4.01-8-8.96-8h0c-4.95,0-8.96-3.58-8.96-8v-32.01c0-4.42,4.01-8,8.96-8h0c4.95,0,8.96-3.58,8.96-8s4.01-8,8.96-8h71.7c4.95,0,8.96,3.58,8.96,8v16.01Z"/>
    </g>
  </g>
</svg>