<?xml version="1.0" encoding="UTF-8"?>
<svg id="Layer_2" data-name="Layer 2" xmlns="http://www.w3.org/2000/svg" viewBox="0 0 2415.24 4067.98">
  <defs>
    <style>
      .cls-1 {
        fill: #3b54a4;
      }

      .cls-2 {
        fill: #5674b8;
      }

      .cls-3 {
        fill: #f1f1f1;
      }

      .cls-3, .cls-4 {
        font-family: EditUndoBRK, 'Edit Undo BRK';
        font-size: 96.09px;
        letter-spacing: 0em;
      }

      .cls-4 {
        fill: #fff;
        stroke: #fff;
        stroke-miterlimit: 10;
      }
    </style>
  </defs>
  <g id="Layer_1-2" data-name="Layer 1">
    <g>
      <g>
        <path d="M1506.95,2168.3h-8.25c-2.28,0-4.13,1.62-4.13,3.62v21.72c0,2,1.85,3.62,4.13,3.62h8.25c2.28,0,4.13-1.62,4.13-3.62v-21.72c0-2-1.85-3.62-4.13-3.62Z"/>
        <path d="M0,0V4067.98H2415.24V0H0ZM1420.28,2020.96c0-4.15,3.84-7.52,8.57-7.52h17.15c4.73,0,8.57,3.37,8.57,7.52v75.18c0,4.15,3.84,7.52,8.57,7.52h17.14c4.73,0,8.57-3.37,8.57-7.52v-75.18c0-4.15,3.84-7.52,8.57-7.52h17.15c4.73,0,8.57,3.37,8.57,7.52v90.22c0,4.15-3.84,7.52-8.57,7.52h0c-4.73,0-8.57,3.37-8.57,7.52s-3.84,7.52-8.57,7.52h-51.43c-4.73,0-8.57-3.37-8.57-7.52s-3.84-7.52-8.57-7.52h0c-4.73,0-8.57-3.37-8.57-7.52v-90.22Zm-737.16,15.04c0,4.15-3.84,7.52-8.57,7.52h-17.15c-4.73,0-8.57,3.37-8.57,7.52v45.11c0,4.15,3.84,7.52,8.57,7.52h17.15c4.73,0,8.57,3.37,8.57,7.52v15.04c0,4.15-3.84,7.52-8.57,7.52h-85.72c-4.73,0-8.57-3.37-8.57-7.52v-15.04c0-4.15,3.84-7.52,8.57-7.52h17.15c4.73,0,8.57-3.37,8.57-7.52v-45.11c0-4.15-3.84-7.52-8.57-7.52h-17.15c-4.73,0-8.57-3.37-8.57-7.52v-15.04c0-4.15,3.84-7.52,8.57-7.52h85.72c4.73,0,8.57,3.37,8.57,7.52v15.04Zm120,90.21c0,4.15-3.84,7.52-8.57,7.52h-17.15c-4.73,0-8.57-3.37-8.57-7.52v-30.07c0-4.15-3.84-7.52-8.57-7.52h0c-4.73,0-8.57-3.37-8.57-7.52h0c0-4.15-3.84-7.52-8.57-7.52s-8.57,3.37-8.57,7.52v45.11c0,4.15-3.84,7.52-8.57,7.52h-17.15c-4.73,0-8.57-3.37-8.57-7.52v-105.25c0-4.15,3.84-7.52,8.57-7.52h17.15c4.73,0,8.57,3.37,8.57,7.52h0c0,4.15,3.84,7.52,8.57,7.52s8.57,3.37,8.57,7.52h0c0,4.15,3.84,7.52,8.57,7.52h0c4.73,0,8.57-3.37,8.57-7.52v-15.04c0-4.15,3.84-7.52,8.57-7.52h17.15c4.73,0,8.57,3.37,8.57,7.52v105.25Zm120-90.21c0,4.15-3.84,7.52-8.57,7.52h-51.43c-4.73,0-8.57,3.37-8.57,7.52s3.84,7.52,8.57,7.52h17.14c4.73,0,8.57,3.37,8.57,7.52v15.04c0,4.15-3.84,7.52-8.57,7.52h-17.14c-4.73,0-8.57,3.37-8.57,7.52v30.07c0,4.15-3.84,7.52-8.57,7.52h-17.15c-4.73,0-8.57-3.37-8.57-7.52v-90.22c0-4.15,3.84-7.52,8.57-7.52h0c4.73,0,8.57-3.37,8.57-7.52h0c0-4.15,3.84-7.52,8.57-7.52h68.57c4.73,0,8.57,3.37,8.57,7.52v15.04Zm120,0c0,4.15-3.84,7.52-8.57,7.52h-17.15c-4.73,0-8.57,3.37-8.57,7.52v45.11c0,4.15,3.84,7.52,8.57,7.52h17.15c4.73,0,8.57,3.37,8.57,7.52v15.04c0,4.15-3.84,7.52-8.57,7.52h-85.72c-4.73,0-8.57-3.37-8.57-7.52v-15.04c0-4.15,3.84-7.52,8.57-7.52h17.15c4.73,0,8.57-3.37,8.57-7.52v-45.11c0-4.15-3.84-7.52-8.57-7.52h-17.15c-4.73,0-8.57-3.37-8.57-7.52v-15.04c0-4.15,3.84-7.52,8.57-7.52h85.72c4.73,0,8.57,3.37,8.57,7.52v15.04Zm120,90.21c0,4.15-3.84,7.52-8.57,7.52h-17.15c-4.73,0-8.57-3.37-8.57-7.52v-30.07c0-4.15-3.84-7.52-8.57-7.52h0c-4.73,0-8.57-3.37-8.57-7.52h0c0-4.15-3.84-7.52-8.57-7.52s-8.57,3.37-8.57,7.52v45.11c0,4.15-3.84,7.52-8.57,7.52h-17.15c-4.73,0-8.57-3.37-8.57-7.52v-105.25c0-4.15,3.84-7.52,8.57-7.52h17.15c4.73,0,8.57,3.37,8.57,7.52h0c0,4.15,3.84,7.52,8.57,7.52s8.57,3.37,8.57,7.52h0c0,4.15,3.84,7.52,8.57,7.52h0c4.73,0,8.57-3.37,8.57-7.52v-15.04c0-4.15,3.84-7.52,8.57-7.52h17.15c4.73,0,8.57,3.37,8.57,7.52v105.25Zm120-90.21c0,4.15-3.84,7.52-8.57,7.52h-17.15c-4.73,0-8.57,3.37-8.57,7.52v45.11c0,4.15,3.84,7.52,8.57,7.52h17.15c4.73,0,8.57,3.37,8.57,7.52v15.04c0,4.15-3.84,7.52-8.57,7.52h-85.72c-4.73,0-8.57-3.37-8.57-7.52v-15.04c0-4.15,3.84-7.52,8.57-7.52h17.15c4.73,0,8.57-3.37,8.57-7.52v-45.11c0-4.15-3.84-7.52-8.57-7.52h-17.15c-4.73,0-8.57-3.37-8.57-7.52v-15.04c0-4.15,3.84-7.52,8.57-7.52h85.72c4.73,0,8.57,3.37,8.57,7.52v15.04Zm120,0c0,4.15-3.84,7.52-8.57,7.52h-17.15c-4.73,0-8.57,3.37-8.57,7.52v75.18c0,4.15-3.84,7.52-8.57,7.52h-17.14c-4.73,0-8.57-3.37-8.57-7.52v-75.18c0-4.15-3.84-7.52-8.57-7.52h-17.15c-4.73,0-8.57-3.37-8.57-7.52v-15.04c0-4.15,3.84-7.52,8.57-7.52h85.72c4.73,0,8.57,3.37,8.57,7.52v15.04Zm66.67,143.17c0,2-1.85,3.62-4.13,3.62s-4.13,1.62-4.13,3.62h0c0,2-1.85,3.62-4.13,3.62h-16.51c-2.28,0-4.13,1.62-4.13,3.62s1.85,3.62,4.13,3.62h24.76c2.28,0,4.13,1.62,4.13,3.62v7.24c0,2-1.85,3.62-4.13,3.62h-41.27c-2.28,0-4.13-1.62-4.13-3.62v-21.72c0-2,1.85-3.62,4.13-3.62s4.13-1.62,4.13-3.62,1.85-3.62,4.13-3.62h16.51c2.28,0,4.13-1.62,4.13-3.62s-1.85-3.62-4.13-3.62h-24.76c-2.28,0-4.13-1.62-4.13-3.62v-7.24c0-2,1.85-3.62,4.13-3.62h33.02c2.28,0,4.13,1.62,4.13,3.62s1.85,3.62,4.13,3.62,4.13,1.62,4.13,3.62v14.48Zm57.78,21.72c0,2-1.85,3.62-4.13,3.62h0c-2.28,0-4.13,1.62-4.13,3.62s-1.85,3.62-4.13,3.62h-24.76c-2.28,0-4.13-1.62-4.13-3.62s-1.85-3.62-4.13-3.62h0c-2.28,0-4.13-1.62-4.13-3.62v-36.2c0-2,1.85-3.62,4.13-3.62h0c2.28,0,4.13-1.62,4.13-3.62s1.85-3.62,4.13-3.62h24.76c2.28,0,4.13,1.62,4.13,3.62s1.85,3.62,4.13,3.62h0c2.28,0,4.13,1.62,4.13,3.62v36.2Zm57.78-21.72c0,2-1.85,3.62-4.13,3.62s-4.13,1.62-4.13,3.62h0c0,2-1.85,3.62-4.13,3.62h-16.51c-2.28,0-4.13,1.62-4.13,3.62s1.85,3.62,4.13,3.62h24.76c2.28,0,4.13,1.62,4.13,3.62v7.24c0,2-1.85,3.62-4.13,3.62h-41.27c-2.28,0-4.13-1.62-4.13-3.62v-21.72c0-2,1.85-3.62,4.13-3.62s4.13-1.62,4.13-3.62,1.85-3.62,4.13-3.62h16.51c2.28,0,4.13-1.62,4.13-3.62s-1.85-3.62-4.13-3.62h-24.76c-2.28,0-4.13-1.62-4.13-3.62v-7.24c0-2,1.85-3.62,4.13-3.62h33.02c2.28,0,4.13,1.62,4.13,3.62s1.85,3.62,4.13,3.62,4.13,1.62,4.13,3.62v14.48Zm53.51,22.12c0,2-1.85,3.62-4.13,3.62s-4.13,1.62-4.13,3.62-1.85,3.62-4.13,3.62h-33.02c-2.28,0-4.13-1.62-4.13-3.62v-7.24c0-2,1.85-3.62,4.13-3.62h24.76c2.28,0,4.13-1.62,4.13-3.62s-1.85-3.62-4.13-3.62h-8.25c-2.28,0-4.13-1.62-4.13-3.62v-7.24c0-2,1.85-3.62,4.13-3.62h8.25c2.28,0,4.13-1.62,4.13-3.62s-1.85-3.62-4.13-3.62h-24.76c-2.28,0-4.13-1.62-4.13-3.62v-7.24c0-2,1.85-3.62,4.13-3.62h33.02c2.28,0,4.13,1.62,4.13,3.62h0c0,2,1.85,3.62,4.13,3.62s4.13,1.62,4.13,3.62v36.19Zm4.27-165.28c0,4.15-3.84,7.52-8.57,7.52h-51.43c-4.73,0-8.57,3.37-8.57,7.52s3.84,7.52,8.57,7.52h34.29c4.73,0,8.57,3.37,8.57,7.52s3.84,7.52,8.57,7.52h0c4.73,0,8.57,3.37,8.57,7.52v30.07c0,4.15-3.84,7.52-8.57,7.52h0c-4.73,0-8.57,3.37-8.57,7.52s-3.84,7.52-8.57,7.52h-68.57c-4.73,0-8.57-3.37-8.57-7.52v-15.04c0-4.15,3.84-7.52,8.57-7.52h51.43c4.73,0,8.57-3.37,8.57-7.52h0c0-4.15-3.84-7.52-8.57-7.52h-34.29c-4.73,0-8.57-3.37-8.57-7.52h0c0-4.15-3.84-7.52-8.57-7.52h0c-4.73,0-8.57-3.37-8.57-7.52v-30.07c0-4.15,3.84-7.52,8.57-7.52h0c4.73,0,8.57-3.37,8.57-7.52h0c0-4.15,3.84-7.52,8.57-7.52h68.57c4.73,0,8.57,3.37,8.57,7.52v15.04Z"/>
      </g>
      <g>
        <text class="cls-4" transform="translate(580.26 2437.6) scale(.76 1)"><tspan x="0" y="0" xml:space="preserve">    250 +          30+          10th</tspan><tspan x="0" y="86.79" xml:space="preserve">Participants      Schools       Edition</tspan></text>
        <text class="cls-3" transform="translate(580.26 2437.6) scale(.76 1)"><tspan x="0" y="0" xml:space="preserve">    250 +          30+          10th</tspan><tspan x="0" y="86.79" xml:space="preserve">Participants      Schools       Edition</tspan></text>
      </g>
      <g>
        <path class="cls-1" d="M1954.77,2209.36c4.26-2.79,4.18-6.81,5.18-10.94,1.74-7.15,7.9-13.36,15.73-15.86,10.32-3.29,22.4-.39,32.35-4.47,7.43-3.06,12.52-10.06,12.55-17.26,.03-9.35-7.53-19.24-2.28-27.39,1.4-2.17,3.72-4.34,3.03-6.76-.84-2.94-5.74-4.19-5.87-7.22-.13-3.09,4.65-4.37,6.31-7.1,3.16-5.2-6.5-11.08-4.08-16.57,1.88-4.26,9.51-4.54,12.52-7.86,.46-.51,.81-1.08,1.02-1.76,.56-1.82-.23-3.74-1.23-5.41-6.11-10.21-19.51-15.51-26.99-24.99-6.38-8.09-7.79-18.29-10.55-27.83-.1-.36-.21-.72-.32-1.08-12.58-41.4-55.67-70.01-104.52-70.01h-55.98c-10.03,0-18.16,7.13-18.16,15.93h0c0,8.8,8.13,15.93,18.16,15.93h18.16c10.03,0,18.16,7.13,18.16,15.93h0c0,8.8-8.13,15.93-18.16,15.93h-72.65c-10.03,0-18.16,7.13-18.16,15.93h0c0,8.8,8.13,15.93,18.16,15.93h18.16c10.03,0,18.16,7.13,18.16,15.93h0c0,8.8,8.13,15.93,18.16,15.93h18.16c10.03,0,18.16,7.13,18.16,15.93h0c0,8.8-8.13,15.93-18.16,15.93h-18.16c-10.03,0-18.16,7.13-18.16,15.93h0c0,8.8-8.13,15.93-18.16,15.93h-18.16c-10.03,0-18.16,7.13-18.16,15.93h0c0,8.8,8.13,15.93,18.16,15.93h18.16c10.03,0,18.16,7.13,18.16,15.93h0c0,8.8,8.13,15.93,18.16,15.93h112.84c3.92-.03,7.57-.59,10.3-2.38Z"/>
        <path class="cls-2" d="M1954.77,2209.36c4.26-2.79,4.18-6.81,5.18-10.94,1.74-7.15,7.9-13.36,15.73-15.86,10.32-3.29,22.4-.39,32.35-4.47,7.43-3.06,12.52-10.06,12.55-17.26,.03-9.35-7.53-19.24-2.28-27.39,1.4-2.17,3.72-4.34,3.03-6.76-.84-2.94-5.74-4.19-5.87-7.22-.13-3.09,4.65-4.37,6.31-7.1,3.16-5.2-6.5-11.08-4.08-16.57,1.88-4.26,9.51-4.54,12.52-7.86,.46-.51,.81-1.08,1.02-1.76,.56-1.82-.23-3.74-1.23-5.41-6.11-10.21-19.51-15.51-26.99-24.99-6.38-8.09-7.79-18.29-10.55-27.83-.1-.36-.21-.72-.32-1.08-3.21-10.58-8.42-20.32-15.21-28.96v6.74c0,8.8-8.13,15.93-18.16,15.93h-18.16c-10.03,0-18.16,7.13-18.16,15.93h0c0,8.8-8.13,15.93-18.16,15.93h-18.16c-10.03,0-18.16,7.13-18.16,15.93h0c0,8.8,8.13,15.93,18.16,15.93h72.65c10.03,0,18.16,7.13,18.16,15.93h0c0,8.8-8.13,15.93-18.16,15.93h-18.16c-10.03,0-18.16,7.13-18.16,15.93h0c0,8.8-8.13,15.93-18.16,15.93h-72.65c-10.03,0-18.16,7.13-18.16,15.93h0c0,8.8,8.13,15.93,18.16,15.93h18.16c10.03,0,18.16,7.13,18.16,15.93h0c0,8.8,8.13,15.93,18.16,15.93h58.35c3.92-.03,7.57-.59,10.3-2.38Z"/>
        <path class="cls-1" d="M1740.83,2211.74h-18.16c-10.03,0-18.16-7.13-18.16-15.93h0c0-8.8,8.13-15.93,18.16-15.93h18.16c10.03,0,18.16,7.13,18.16,15.93h0c0,8.8-8.13,15.93-18.16,15.93Z"/>
        <path class="cls-1" d="M1758.99,2084.3h-36.32c-10.03,0-18.16,7.13-18.16,15.93h0c0,8.8,8.13,15.93,18.16,15.93h72.65c10.03,0,18.16-7.13,18.16-15.93h0c0-8.8-8.13-15.93-18.16-15.93h-36.32Z"/>
        <path class="cls-1" d="M1722.67,1956.87h18.16c10.03,0,18.16,7.13,18.16,15.93h0c0,8.8-8.13,15.93-18.16,15.93h-18.16c-10.03,0-18.16-7.13-18.16-15.93h0c0-8.8,8.13-15.93,18.16-15.93Z"/>
      </g>
    </g>
  </g>
</svg>