<svg width="530" height="145" viewBox="0 0 530 145" fill="none" xmlns="http://www.w3.org/2000/svg">
<path fill-rule="evenodd" clip-rule="evenodd" d="M530 0H0V145H530V0ZM118.011 96.9048L105.238 74.9816C105.366 74.4319 105.867 73.3717 106.998 72.3595L130.238 51.6667L118.011 96.9048ZM460.736 34.0665C465.348 32.3151 470.086 31.4286 474.827 31.4286C479.289 31.4286 483.047 32.207 486.322 33.8157C489.545 35.3941 492.06 37.4179 494.002 39.9866C495.918 42.5207 497.143 45.5089 497.747 49.1198C498.39 52.9253 498.135 57.1546 497.044 61.5136C495.771 66.2964 493.631 70.8933 490.701 75.1832C487.702 79.5552 484.095 83.4125 479.983 86.6386C475.863 89.8603 471.298 92.4203 466.414 94.2496C461.694 96.0096 456.84 96.9048 451.977 96.9048C447.628 96.9048 443.956 96.1307 440.746 94.5436C437.57 92.9695 435.106 90.963 433.208 88.4116C431.297 85.8342 430.054 82.7985 429.402 79.1054C428.738 75.3951 429.01 71.2609 430.192 66.8197C431.474 62.0326 433.609 57.4357 436.539 53.1588C439.542 48.7695 443.149 44.9165 447.261 41.6904C451.381 38.4644 455.92 35.9 460.736 34.0665ZM234.718 113.571H202.857L223.959 33.905C224.277 32.7189 226.021 31.4416 226.781 31.4286H272.64C276.463 31.4286 279.774 32.1107 282.471 33.4488C285.121 34.7652 287.179 36.4596 288.742 38.6275C290.344 40.8476 291.375 43.4717 291.878 46.6433C292.406 49.9756 292.144 53.6554 291.1 57.5959C289.962 61.9058 288.059 65.994 285.469 69.739C282.738 73.6665 279.495 77.1422 275.84 80.0661C272.193 82.9726 268.16 85.3056 263.865 86.9913C261.885 87.7734 259.879 88.3686 257.886 88.7639C248.776 90.5756 241.049 97.8571 238.653 106.894L237.544 111.095C237.227 112.281 235.479 113.558 234.718 113.571ZM341.865 113.571H310L331.102 33.905C331.42 32.7189 333.168 31.4416 333.928 31.4286H379.783C383.605 31.4286 386.917 32.1107 389.618 33.4488C392.264 34.7652 394.317 36.4596 395.889 38.6319C397.491 40.8476 398.518 43.4717 399.02 46.6433C399.549 49.9799 399.287 53.6641 398.247 57.5959C397.109 61.9101 395.206 65.994 392.608 69.7434C389.889 73.6622 386.646 77.1378 382.982 80.0661C379.332 82.9769 375.303 85.31 371.016 86.9913C369.032 87.7734 367.022 88.3686 365.029 88.7639C355.915 90.5756 348.188 97.8615 345.804 106.885L344.687 111.095C344.369 112.281 342.626 113.558 341.865 113.571ZM98.6068 113.571H31.4286L52.7152 35.069C53.0366 33.8934 54.8043 32.6319 55.5731 32.619H120.714L92.7737 57.4106C83.9437 65.2411 81.2812 77.3323 86.4455 86.1668L101.295 111.555C100.774 112.464 99.4667 113.571 98.6068 113.571ZM163.316 113.571H136.19L157.419 33.8997C157.733 32.7162 159.488 31.4416 160.251 31.4286H187.381L166.149 111.1C165.834 112.288 164.079 113.563 163.316 113.571ZM132.953 135H163.702C170.876 135 177.83 131.412 182.472 125.867C182.835 126.489 183.236 127.093 183.68 127.668C187.17 132.215 192.649 134.827 198.71 134.827H234.317C244.998 134.827 255.17 126.89 257.991 116.358L259.104 112.187C259.367 111.211 260.722 109.963 261.74 109.764C264.98 109.125 268.232 108.184 271.407 106.944C277.719 104.487 283.629 101.102 288.974 96.8829C290.419 95.7429 291.821 94.5381 293.171 93.2858L288.491 110.775C286.86 116.863 287.969 123.021 291.527 127.668C295.017 132.215 300.496 134.827 306.557 134.827H342.168C352.845 134.827 363.017 126.89 365.834 116.367L366.956 112.178C367.219 111.207 368.574 109.963 369.587 109.764C372.823 109.125 376.076 108.184 379.259 106.944C385.566 104.487 391.472 101.106 396.821 96.8829C401.122 93.4845 405.013 89.5894 408.421 85.2625C409.767 91.4376 412.239 96.9693 415.785 101.732C419.706 107.005 424.84 111.241 431.061 114.316C443.234 120.335 459.36 120.288 473.816 114.894C480.77 112.299 487.262 108.663 493.125 104.077C498.983 99.4955 504.104 94.0286 508.353 87.8405C512.671 81.5316 515.829 74.7131 517.783 67.4066C519.647 59.9793 520.017 52.7808 518.879 46.0098C517.697 38.9883 515.065 32.7485 511.066 27.45C507.084 22.1947 501.903 17.9801 495.657 14.9228C483.539 8.98522 467.422 8.89453 452.958 14.383C446.107 16.9826 439.68 20.6142 433.852 25.1743C428.649 29.2377 424.02 34.0137 420.064 39.3856C418.809 34.4326 416.721 29.9459 413.839 25.9948C410.19 21.0158 405.406 17.0517 399.629 14.2146C393.931 11.4164 387.417 10 380.251 10H334.196C323.515 10 313.343 17.9369 310.522 28.4648L309.573 32.023C308.559 29.8984 307.368 27.8861 305.992 25.9948C302.347 21.0201 297.563 17.056 291.782 14.2146C286.083 11.4164 279.569 10 272.404 10H226.344C219.214 10 212.307 13.541 207.67 19.0251C207.294 18.3817 206.872 17.7556 206.414 17.1596C202.924 12.6125 197.446 10 191.385 10H160.635C153.755 10 147.085 13.2948 142.456 18.4551C139.105 13.3769 133.371 10.3455 126.724 10.3455H56.3941C45.7259 10.3455 35.5494 18.2781 32.7238 28.8102L10.7358 110.947C9.10517 117.036 10.2138 123.194 13.7728 127.84C17.2628 132.387 22.7414 135 28.8067 135H99.1362C105.818 135 112.436 131.869 117.134 126.731C117.384 127.106 117.647 127.478 117.923 127.84C121.409 132.387 126.892 135 132.953 135Z" fill="black"/>
</svg>
